<?xml version="1.0" encoding="utf-8"?>
<!-- Generator: Adobe Illustrator 26.0.1, SVG Export Plug-In . SVG Version: 6.00 Build 0)  -->
<svg version="1.1" id="Layer_1" xmlns="http://www.w3.org/2000/svg" xmlns:xlink="http://www.w3.org/1999/xlink" x="0px" y="0px"
	 viewBox="0 0 150 117" style="enable-background:new 0 0 150 117;" xml:space="preserve">
<style type="text/css">
	.st0{fill:none;stroke:#EC5658;stroke-width:9;stroke-linecap:round;stroke-miterlimit:10;}
	.st1{fill:none;stroke:#67B9F7;stroke-width:9;stroke-linecap:round;stroke-miterlimit:10;}
	.st2{fill:none;stroke:#2B1B9A;stroke-width:9;stroke-linecap:round;stroke-miterlimit:10;}
	.st3{fill:none;stroke:#A094F8;stroke-width:9;stroke-linecap:round;stroke-miterlimit:10;}
	.st4{fill:none;stroke:#F5B740;stroke-width:9;stroke-linecap:round;stroke-miterlimit:10;}
</style>
<g>
	<path class="st0" d="M127.4,20.8c-9-9-23.5-9-32.5,0L69.8,46.2c-10.8,10.3-6.3,24.2,8,23.4"/>
	<path class="st1" d="M127.5,20.8c9,9,9,23.6,0,32.6l-6.1,6.1"/>
	<path class="st2" d="M24.7,53.3L24.7,53.3c-9-9-9-23.6,0-32.6s23.5-9,32.5,0l10.7,10.7C73.1,36.3,86,48.4,86,60
		c0,8.7-6.9,10.9-13.5,9.1"/>
	<path class="st3" d="M24.7,53.3l34.6,34.7c3.2,3.2,8.8,9,12.2,12.5"/>
	<path class="st4" d="M120.5,60l-42.8,40.9c-1.6,1.4-4,1.4-5.6,0L57.6,86.3"/>
</g>
</svg>
